<svg width="24" height="17" viewBox="0 0 24 17" fill="none" xmlns="http://www.w3.org/2000/svg">
<g clip-path="url(#clip0)">
<path d="M7.8387 16.7443C8.1656 17.0852 8.7098 17.0852 9.0482 16.7443C9.3752 16.415 9.3752 15.8668 9.0482 15.5382L2.9152 9.3599L23.1533 9.3599C23.625 9.35914 24 8.98139 24 8.50614C24 8.03089 23.625 7.64086 23.1533 7.64086L2.9152 7.64086L9.0482 1.4741C9.3752 1.1332 9.3752 0.5843 9.0482 0.2557C8.7098 -0.0851995 8.1649 -0.0851995 7.8387 0.255701L0.253799 7.89653C-0.0846013 8.22591 -0.0846013 8.77409 0.253799 9.1027L7.8387 16.7443Z" fill="#F9FBFF"/>
</g>
<defs>
<clipPath id="clip0">
<rect width="24" height="17" fill="white" transform="translate(24 17) rotate(180)"/>
</clipPath>
</defs>
</svg>
